<svg xmlns="http://www.w3.org/2000/svg" data-name="Layer 1" viewBox="0 0 120 150" x="0px" y="0px"><title>landmark-africa3</title><path d="M60,104.37c-27,0-49-19.07-49-42.5,0-21.06,17.38-38.72,41.32-42a2,2,0,1,1,.55,4c-21.95,3-37.87,19-37.87,38,0,21.23,20.19,38.5,45,38.5s45-17.27,45-38.5c0-19-15.93-35-37.87-38a2,2,0,0,1,.54-4c24,3.26,41.33,20.92,41.33,42C109,85.3,87,104.37,60,104.37Z"/><path d="M77.15,62a2,2,0,0,1-2-1.77l-2-17.59a1.79,1.79,0,0,1,0-.23A5.42,5.42,0,0,0,67.74,37H48.46A5.42,5.42,0,0,0,43,42.42a1.77,1.77,0,0,1,0,.23L41.54,55.76A1.56,1.56,0,0,0,42,57.07a1.62,1.62,0,0,0,1.31.46l20.4-2.27a2,2,0,1,1,.44,4L43.74,61.5a5.6,5.6,0,0,1-6.18-6.19L39,42.3A9.44,9.44,0,0,1,48.46,33H67.74a9.42,9.42,0,0,1,9.41,9.3l2,17.49A2,2,0,0,1,77.38,62Z"/><path d="M71.34,75.35H46.76a2,2,0,0,1-1.46-.63,2,2,0,0,1-.53-1.51l1-14.57V47.51a2,2,0,0,1,4,0v11.2a.71.71,0,0,1,0,.14l-.87,12.5H69.17l-.88-11.24a2,2,0,1,1,4-.31l1.06,13.39a2,2,0,0,1-.52,1.52A2,2,0,0,1,71.34,75.35Z"/><path d="M47.11,102.41h-.22a2,2,0,0,1-1.77-2.2l2.77-25.79a2,2,0,1,1,4,.43l-2.77,25.79A2,2,0,0,1,47.11,102.41Z"/><path d="M71.34,102.41a2,2,0,0,1-2-1.78L66.58,74.84a2,2,0,1,1,4-.43l2.77,25.79a2,2,0,0,1-1.78,2.2Z"/><path d="M59.05,103.27a2,2,0,0,1-2-2V82.89a2,2,0,0,1,4,0v18.38A2,2,0,0,1,59.05,103.27Z"/><path d="M60,35.73a10,10,0,1,1,10-10A10.06,10.06,0,0,1,60,35.73Zm0-16.1a6.05,6.05,0,1,0,6,6.05A6.06,6.06,0,0,0,60,19.63Z"/><text x="0" y="135" fill="#000000" font-size="5px" font-weight="bold" font-family="'Helvetica Neue', Helvetica, Arial-Unicode, Arial, Sans-serif">Created by Ary Prasetyo</text><text x="0" y="140" fill="#000000" font-size="5px" font-weight="bold" font-family="'Helvetica Neue', Helvetica, Arial-Unicode, Arial, Sans-serif">from the Noun Project</text></svg>