<svg xmlns="http://www.w3.org/2000/svg" data-name="Layer 1" viewBox="0 0 120 150" x="0px" y="0px"><title>landmark-africa3</title><path d="M79.36,22.84l1.11-.5a2,2,0,1,0-1.62-3.65l-4.26,1.89A15.93,15.93,0,0,0,71,16.06a2,2,0,0,0-2.53,3.1,12.58,12.58,0,0,1,2.5,3.05l-2.37,1.06a2,2,0,1,0,1.63,3.65L72,26.1a14,14,0,0,1-.17,4.19,2,2,0,0,0,1.42,2.44,1.86,1.86,0,0,0,.52.07,2,2,0,0,0,1.93-1.49,17.06,17.06,0,0,0,.31-5.4c17.4,5.67,29,19.93,29,36,0,19.55-17.12,35.73-39.2,38.17V79.48c9-1,16.66-4.25,16.66-9.65a2,2,0,0,0-2-2H62V64.77c5.11-.85,9-4.91,9-9.78a2,2,0,0,0-2-2H64V49h1.78a2,2,0,0,0,1.94-2.48l-1.8-7.3,2.52-9.55a2,2,0,0,0-1.37-2.42l-2.89-.86a6.18,6.18,0,1,0-8.12.18L51.48,28.2a2,2,0,0,0-1.28,2.17l1.24,8.46L50.2,46.64a2,2,0,0,0,.46,1.61,2,2,0,0,0,1.52.7h1v4H51a2,2,0,0,0-2,2c0,4.87,3.89,8.93,9,9.78v3.06H39.54a2,2,0,0,0-2,2c0,5.4,7.69,8.67,16.66,9.65v20.58C32.12,97.62,15,81.44,15,61.89c0-16.15,11.71-30.48,29.29-36.08l2.13,14.76a2,2,0,0,0,2,1.71,1.46,1.46,0,0,0,.29,0A2,2,0,0,0,50.38,40L47.17,17.74a2,2,0,1,0-4,.57l.5,3.49c-19.6,6-32.71,22-32.71,40.09,0,23.44,22,42.5,49,42.5s49-19.06,49-42.5C109,44.74,97.25,29.49,79.36,22.84ZM60,19.61a2.18,2.18,0,1,1-2.18,2.17A2.18,2.18,0,0,1,60,19.61Zm.07,9.68,4,1.19L61.9,38.65a2,2,0,0,0,0,1L63.2,45H54.52l.65-4.11h3.44a2,2,0,0,0,0-4H55.19l-.8-5.45ZM57.23,49H60v4H57.23Zm-3.82,8H66.59a7.47,7.47,0,0,1-13.18,0Zm23.7,14.84c-2.17,1.68-6.81,3.31-13.18,3.81l-.13,0a2.32,2.32,0,0,0-.45.06c-1.07.07-2.19.11-3.35.11s-2.28,0-3.35-.11a2.32,2.32,0,0,0-.45-.06l-.13,0c-6.37-.5-11-2.13-13.18-3.81ZM58.2,100.35V79.76q.9,0,1.8,0t1.8,0v20.59c-.6,0-1.2,0-1.8,0S58.8,100.37,58.2,100.35Z"/><text x="0" y="135" fill="#000000" font-size="5px" font-weight="bold" font-family="'Helvetica Neue', Helvetica, Arial-Unicode, Arial, Sans-serif">Created by Ary Prasetyo</text><text x="0" y="140" fill="#000000" font-size="5px" font-weight="bold" font-family="'Helvetica Neue', Helvetica, Arial-Unicode, Arial, Sans-serif">from the Noun Project</text></svg>